<svg width="44" height="71" viewBox="0 0 44 71" fill="none" xmlns="http://www.w3.org/2000/svg">
<g id="Camada_1" clip-path="url(#clip0_21_413)">
<path id="Vector" d="M40.5801 50.6513C40.5117 47.3155 39.5542 44.0351 37.6511 40.6242C36.4441 38.4544 35.0117 36.4663 33.5231 34.6483C32.0304 32.8302 30.4814 31.1821 29.0249 29.6999C27.6931 28.3443 26.3493 26.9965 25.0055 25.6488C22.9817 23.6252 20.8896 21.5304 18.8738 19.4278C16.4196 16.8706 14.9269 14.6652 14.0377 12.278C12.7261 8.76435 13.1445 5.59853 15.285 2.85955C15.4378 2.66589 15.5465 2.34575 15.5706 2.02561C15.631 1.35371 15.3171 0.907092 14.4964 0.5H13.6836C13.6032 0.55138 13.5187 0.602761 13.4382 0.650189C13.1566 0.82014 12.8951 0.978234 12.6738 1.16004C10.5051 2.95441 8.71071 4.97801 7.33872 7.17551C2.58708 14.7956 2.07611 22.0719 5.77362 29.4233C7.90602 33.6681 11.1288 37.2371 13.9934 40.1697C15.5585 41.7743 17.18 43.383 18.7451 44.9362C20.4108 46.5883 22.1288 48.2957 23.7904 50.0031C25.7981 52.0663 28.0472 54.6037 29.5198 57.7813C31.1935 61.4017 30.9682 64.8086 28.8519 67.9152C27.9828 69.1878 28.6387 69.8321 28.8559 70.0455C29.4715 70.6502 30.2882 70.6541 31.0406 70.0534C33.1972 68.3341 35.1002 66.2196 36.6975 63.7652C39.3731 59.6627 40.6807 55.2518 40.5801 50.6513ZM34.8186 60.9748L34.026 62.3621L33.7001 60.8049C32.5534 55.3072 29.0692 51.2718 25.601 47.608C23.879 45.7899 22.0845 43.9758 20.3464 42.217C18.56 40.4147 16.7173 38.5453 14.9389 36.6679C11.4667 33.0001 9.18145 29.6683 7.74911 26.1863C5.60866 20.9811 5.99893 15.6928 8.9159 10.4678C8.9682 10.3769 9.03258 10.29 9.09695 10.207L9.12109 10.1714C9.22168 10.037 9.34641 9.98563 9.40273 9.96192L9.44699 9.9382L10.1229 9.59435L10.312 10.3137C10.3643 10.5113 10.4126 10.705 10.4609 10.8947C10.5253 11.1397 10.5856 11.3808 10.65 11.6179C11.3621 14.1791 12.722 16.6335 15.0637 19.578C17.4536 22.5739 20.2337 25.3286 22.9214 27.9886C23.5933 28.6565 24.2692 29.3245 24.9371 29.9964C28.2323 33.3084 31.1573 36.3438 33.5955 39.9365C35.6997 43.0391 36.9068 45.8492 37.3936 48.7858C38.0575 52.7935 37.2166 56.7814 34.8186 60.9748Z" fill="#368ECE"/>
<path id="Vector_2" d="M19.9762 61.9669C19.9119 63.864 19.3647 65.3777 18.3065 66.5911C17.8639 67.101 17.365 67.267 16.7816 67.101C16.0695 66.8994 15.6873 66.4844 15.647 65.8678C15.6189 65.4924 15.7315 65.0378 15.9247 64.7651C17.0955 63.1209 17.184 61.374 16.1902 59.5757C15.2568 57.892 13.8928 56.6075 12.5732 55.4415C11.7524 54.7104 10.9236 53.991 10.0947 53.2677C8.24397 51.6552 6.32883 49.9834 4.51829 48.272C2.28932 46.1614 0.91734 43.9876 0.333946 41.6162C0.132776 40.806 0.0201202 39.9009 3.19959e-06 38.9326C-0.0160904 38.071 0.599491 37.3872 1.43636 37.3477C1.46855 37.3438 1.50476 37.3438 1.53695 37.3438C1.95136 37.3438 2.32553 37.4821 2.60717 37.735C2.89283 37.9919 3.04572 38.3516 3.05779 38.7666C3.13424 41.5372 4.34528 43.96 6.87601 46.3867C8.12729 47.5843 9.45904 48.7226 10.7465 49.8292C11.8208 50.7462 12.9312 51.6987 13.9773 52.667C15.6672 54.2321 17.1035 55.734 18.3709 57.2517C19.421 58.5125 19.9601 60.1053 19.9762 61.9669Z" fill="#368ECE"/>
<path id="Vector_3" d="M43.996 32.1624C43.9799 32.945 43.3522 33.5971 42.5636 33.6445C42.1251 33.6722 41.6865 33.5299 41.3807 33.2572C41.2158 33.111 41.0146 32.862 41.0026 32.4984C40.8497 28.1152 38.15 25.3604 35.1565 22.6965C34.0742 21.7322 32.9517 20.7796 31.8694 19.8548C30.59 18.7679 29.2663 17.6375 28.0069 16.4953C26.2286 14.8867 25.1141 13.3374 24.4945 11.6181C23.6375 9.23879 23.9433 6.92272 25.4038 4.73707C25.8343 4.09679 26.297 3.83594 26.9769 3.83594C27.6328 3.85965 28.019 4.30627 28.2282 4.66988C28.5219 5.1995 28.5018 5.68564 28.1679 6.12039C26.7396 7.95428 26.7436 9.95417 28.1759 12.0647C29.4031 13.8709 31.0567 15.2543 32.654 16.5902L33.2535 17.0921C33.6518 17.4281 34.0541 17.7601 34.4524 18.092C36.5366 19.8232 38.6891 21.6096 40.4594 23.6965C42.3705 25.9454 43.4407 28.0322 43.827 30.2732C43.9557 31.0241 44.008 31.6249 43.996 32.1624Z" fill="#368ECE"/>
</g>
<defs>
<clipPath id="clip0_21_413">
<rect width="44" height="70" fill="white" transform="translate(0 0.5)"/>
</clipPath>
</defs>
</svg>
