<svg width="44" height="70" viewBox="0 0 44 70" fill="none" xmlns="http://www.w3.org/2000/svg">
<g id="Camada_1" clip-path="url(#clip0_26_690)">
<path id="Vector" d="M40.5801 50.1513C40.5117 46.8155 39.5542 43.5351 37.6511 40.1242C36.4441 37.9544 35.0117 35.9663 33.5231 34.1483C32.0304 32.3302 30.4814 30.6821 29.0249 29.1999C27.6931 27.8443 26.3493 26.4965 25.0055 25.1488C22.9817 23.1252 20.8896 21.0304 18.8738 18.9278C16.4196 16.3706 14.9269 14.1652 14.0377 11.778C12.7261 8.26435 13.1445 5.09853 15.285 2.35955C15.4378 2.16589 15.5465 1.84575 15.5706 1.52561C15.631 0.853707 15.3171 0.407092 14.4964 0H13.6836C13.6032 0.0513805 13.5187 0.102761 13.4382 0.150189C13.1566 0.32014 12.8951 0.478234 12.6738 0.660042C10.5051 2.45441 8.71071 4.47801 7.33872 6.67551C2.58708 14.2956 2.07611 21.5719 5.77362 28.9233C7.90602 33.1681 11.1288 36.7371 13.9934 39.6697C15.5585 41.2743 17.18 42.883 18.7451 44.4362C20.4108 46.0883 22.1288 47.7957 23.7904 49.5031C25.7981 51.5663 28.0472 54.1037 29.5198 57.2813C31.1935 60.9017 30.9682 64.3086 28.8519 67.4152C27.9828 68.6878 28.6387 69.3321 28.8559 69.5455C29.4715 70.1502 30.2882 70.1541 31.0406 69.5534C33.1972 67.8341 35.1002 65.7196 36.6975 63.2652C39.3731 59.1627 40.6807 54.7518 40.5801 50.1513ZM34.8186 60.4748L34.026 61.8621L33.7001 60.3049C32.5534 54.8072 29.0692 50.7718 25.601 47.108C23.879 45.2899 22.0845 43.4758 20.3464 41.717C18.56 39.9147 16.7173 38.0453 14.9389 36.1679C11.4667 32.5001 9.18145 29.1683 7.74911 25.6863C5.60866 20.4811 5.99893 15.1928 8.9159 9.96782C8.9682 9.87691 9.03258 9.78996 9.09695 9.70696L9.12109 9.67139C9.22168 9.53701 9.34641 9.48563 9.40273 9.46192L9.44699 9.4382L10.1229 9.09435L10.312 9.81367C10.3643 10.0113 10.4126 10.205 10.4609 10.3947C10.5253 10.6397 10.5856 10.8808 10.65 11.1179C11.3621 13.6791 12.722 16.1335 15.0637 19.078C17.4536 22.0739 20.2337 24.8286 22.9214 27.4886C23.5933 28.1565 24.2692 28.8245 24.9371 29.4964C28.2323 32.8084 31.1573 35.8438 33.5955 39.4365C35.6997 42.5391 36.9068 45.3492 37.3936 48.2858C38.0575 52.2935 37.2166 56.2814 34.8186 60.4748Z" fill="#D4AF5D"/>
<path id="Vector_2" d="M19.9762 61.4669C19.9119 63.364 19.3647 64.8777 18.3065 66.0911C17.8639 66.601 17.365 66.767 16.7816 66.601C16.0695 66.3994 15.6873 65.9844 15.647 65.3678C15.6189 64.9924 15.7315 64.5378 15.9247 64.2651C17.0955 62.6209 17.184 60.874 16.1902 59.0757C15.2568 57.392 13.8928 56.1075 12.5732 54.9415C11.7524 54.2104 10.9236 53.491 10.0947 52.7677C8.24397 51.1552 6.32883 49.4834 4.51829 47.772C2.28932 45.6614 0.91734 43.4876 0.333946 41.1162C0.132776 40.306 0.0201202 39.4009 3.19959e-06 38.4326C-0.0160904 37.571 0.599491 36.8872 1.43636 36.8477C1.46855 36.8438 1.50476 36.8438 1.53695 36.8438C1.95136 36.8438 2.32553 36.9821 2.60717 37.235C2.89283 37.4919 3.04572 37.8516 3.05779 38.2666C3.13424 41.0372 4.34528 43.46 6.87601 45.8867C8.12729 47.0843 9.45904 48.2226 10.7465 49.3292C11.8208 50.2462 12.9312 51.1987 13.9773 52.167C15.6672 53.7321 17.1035 55.234 18.3709 56.7517C19.421 58.0125 19.9601 59.6053 19.9762 61.4669Z" fill="#D4AF5D"/>
<path id="Vector_3" d="M43.996 31.6624C43.9799 32.445 43.3522 33.0971 42.5636 33.1445C42.1251 33.1722 41.6865 33.0299 41.3807 32.7572C41.2158 32.611 41.0146 32.362 41.0026 31.9984C40.8497 27.6152 38.15 24.8604 35.1565 22.1965C34.0742 21.2322 32.9517 20.2796 31.8694 19.3548C30.59 18.2679 29.2663 17.1375 28.0069 15.9953C26.2286 14.3867 25.1141 12.8374 24.4945 11.1181C23.6375 8.73879 23.9433 6.42272 25.4038 4.23707C25.8343 3.59679 26.297 3.33594 26.9769 3.33594C27.6328 3.35965 28.019 3.80627 28.2282 4.16988C28.5219 4.6995 28.5018 5.18564 28.1679 5.62039C26.7396 7.45428 26.7436 9.45417 28.1759 11.5647C29.4031 13.3709 31.0567 14.7543 32.654 16.0902L33.2535 16.5921C33.6518 16.9281 34.0541 17.2601 34.4524 17.592C36.5366 19.3232 38.6891 21.1096 40.4594 23.1965C42.3705 25.4454 43.4407 27.5322 43.827 29.7732C43.9557 30.5241 44.008 31.1249 43.996 31.6624Z" fill="#D4AF5D"/>
</g>
<defs>
<clipPath id="clip0_26_690">
<rect width="44" height="70" fill="white"/>
</clipPath>
</defs>
</svg>
