<svg width="57" height="85" viewBox="0 0 57 85" fill="none" xmlns="http://www.w3.org/2000/svg">
<g id="Camada_1">
<path id="Vector" d="M48.2628 47.8126C47.8045 46.304 47.2656 44.7809 46.6387 43.2217C46.0155 41.6625 45.3043 40.0708 44.4977 38.4214C39.9665 29.16 34.4491 20.4833 29.6503 13.2215C29.1993 12.5393 28.4771 12.3084 27.8686 12.6693C27.6559 12.7956 27.4616 12.9869 27.3077 13.2215C22.7801 20.0719 19.2864 25.742 16.3095 31.0693C13.0174 36.9668 10.8141 41.6661 9.1754 46.3004C7.73831 50.3427 7.621 54.1866 8.81247 58.0485C10.0589 62.0945 12.3905 65.48 15.745 68.1147C18.0729 69.9446 20.6575 71.2043 23.4217 71.8612C24.2318 72.0524 25.0714 72.1896 25.8632 72.3159C26.2298 72.3737 26.5928 72.435 26.9594 72.5L29.9985 72.4892C30.0865 72.4639 30.2112 72.4242 30.3578 72.4098C33.7562 72.1066 36.9164 71.0166 39.7392 69.1686C43.3539 66.8118 45.9825 63.6393 47.5406 59.7413C49.2086 55.5762 49.4432 51.6746 48.2628 47.8126ZM45.2896 59.5933C43.09 64.4694 39.3836 67.7899 34.2731 69.461C32.2898 70.1107 30.3028 70.4391 28.3671 70.4391C25.328 70.4391 22.3292 69.6378 19.4623 68.057C15.349 65.7904 12.5042 62.376 11.0048 57.9041C9.90128 54.6269 9.82063 51.3966 10.7591 48.3035C12.2842 43.3191 14.5755 38.7606 16.8264 34.5811C19.9609 28.7449 23.5023 22.8582 27.6413 16.5853L28.5065 15.3474L29.0674 16.1991C29.3057 16.5637 29.5366 16.921 29.7712 17.2711L29.9949 17.614C30.4311 18.2817 30.8527 18.9241 31.2707 19.581C36.2381 27.3915 39.7392 33.5092 42.6207 39.4175C44.1751 42.6045 45.3446 45.4991 46.1915 48.2674C47.3169 51.9669 47.0163 55.7783 45.2896 59.5933Z" fill="#368ECE"/>
<path id="Vector_2" d="M30.0786 63.9629C29.7165 63.8964 29.3336 63.8591 28.9591 63.8217L28.7177 63.7968C28.3806 63.7719 28.0435 63.7386 27.723 63.6971C22.5874 62.9704 18.3008 59.1253 17.0647 54.1341C16.8691 53.3368 16.7859 52.523 16.711 51.7382L16.6777 51.4018C16.6652 51.3105 16.6569 51.2191 16.6485 51.1277C16.6402 51.0447 16.6319 50.9575 16.6194 50.8744C16.5237 50.0523 15.9785 49.5 15.2627 49.5H15.1878C14.4428 49.5623 13.9684 50.1685 14.0016 51.0073C14.0349 51.8046 14.0807 52.4025 14.1515 52.934C15.0795 60.3337 21.4138 66.1637 28.9008 66.5C29.0423 66.4875 29.188 66.4792 29.3336 66.4751H29.4294C29.6999 66.4626 29.9538 66.4502 30.1702 66.3879C30.6654 66.255 31.0275 65.6944 30.9984 65.1214V65.1131C30.9692 64.5442 30.5863 64.0584 30.0869 63.9629H30.0786Z" fill="#368ECE"/>
</g>
</svg>
