<svg width="57" height="84" viewBox="0 0 57 84" fill="none" xmlns="http://www.w3.org/2000/svg">
<g id="Camada_1">
<path id="Vector" d="M48.2628 47.3126C47.8045 45.804 47.2656 44.2809 46.6387 42.7217C46.0155 41.1625 45.3043 39.5708 44.4977 37.9214C39.9665 28.66 34.4491 19.9833 29.6503 12.7215C29.1993 12.0393 28.4771 11.8084 27.8686 12.1693C27.6559 12.2956 27.4616 12.4869 27.3077 12.7215C22.7801 19.5719 19.2864 25.242 16.3095 30.5693C13.0174 36.4668 10.8141 41.1661 9.1754 45.8004C7.73831 49.8427 7.621 53.6866 8.81247 57.5485C10.0589 61.5945 12.3905 64.98 15.745 67.6147C18.0729 69.4446 20.6575 70.7043 23.4217 71.3612C24.2318 71.5524 25.0714 71.6896 25.8632 71.8159C26.2298 71.8737 26.5928 71.935 26.9594 72L29.9985 71.9892C30.0865 71.9639 30.2112 71.9242 30.3578 71.9098C33.7562 71.6066 36.9164 70.5166 39.7392 68.6686C43.3539 66.3118 45.9825 63.1393 47.5406 59.2413C49.2086 55.0762 49.4432 51.1746 48.2628 47.3126ZM45.2896 59.0933C43.09 63.9694 39.3836 67.2899 34.2731 68.961C32.2898 69.6107 30.3028 69.9391 28.3671 69.9391C25.328 69.9391 22.3292 69.1378 19.4623 67.557C15.349 65.2904 12.5042 61.876 11.0048 57.4041C9.90128 54.1269 9.82063 50.8966 10.7591 47.8035C12.2842 42.8191 14.5755 38.2606 16.8264 34.0811C19.9609 28.2449 23.5023 22.3582 27.6413 16.0853L28.5065 14.8474L29.0674 15.6991C29.3057 16.0637 29.5366 16.421 29.7712 16.7711L29.9949 17.114C30.4311 17.7817 30.8527 18.4241 31.2707 19.081C36.2381 26.8915 39.7392 33.0092 42.6207 38.9175C44.1751 42.1045 45.3446 44.9991 46.1915 47.7674C47.3169 51.4669 47.0163 55.2783 45.2896 59.0933Z" fill="#D4AF5D"/>
<path id="Vector_2" d="M30.0786 63.4629C29.7165 63.3964 29.3336 63.3591 28.9591 63.3217L28.7177 63.2968C28.3806 63.2719 28.0435 63.2386 27.723 63.1971C22.5874 62.4704 18.3008 58.6253 17.0647 53.6341C16.8691 52.8368 16.7859 52.023 16.711 51.2382L16.6777 50.9018C16.6652 50.8105 16.6569 50.7191 16.6485 50.6277C16.6402 50.5447 16.6319 50.4575 16.6194 50.3744C16.5237 49.5523 15.9785 49 15.2627 49H15.1878C14.4428 49.0623 13.9684 49.6685 14.0016 50.5073C14.0349 51.3046 14.0807 51.9025 14.1515 52.434C15.0795 59.8337 21.4138 65.6637 28.9008 66C29.0423 65.9875 29.188 65.9792 29.3336 65.9751H29.4294C29.6999 65.9626 29.9538 65.9502 30.1702 65.8879C30.6654 65.755 31.0275 65.1944 30.9984 64.6214V64.6131C30.9692 64.0442 30.5863 63.5584 30.0869 63.4629H30.0786Z" fill="#D4AF5D"/>
</g>
</svg>
