<svg width="47" height="57" viewBox="0 0 47 57" fill="none" xmlns="http://www.w3.org/2000/svg">
<g id="Camada_1" clip-path="url(#clip0_21_458)">
<path id="Vector" d="M19.351 33.5836C19.3337 30.2575 19.3337 26.8421 19.351 23.4302C19.3545 23.011 19.5003 22.554 19.7432 22.2138C21.5131 19.7227 21.52 16.7609 19.7605 14.2869C19.5072 13.9296 19.3545 13.4554 19.351 13.0156C19.3406 10.1534 19.3406 7.29465 19.3406 4.43246V1.16137C19.3371 0.381397 18.9589 0.00343601 18.1815 0H8.05132C7.30864 0.00343601 6.91649 0.388269 6.91301 1.12014C6.90954 1.76611 6.90954 2.41208 6.90954 3.07179V4.94442L5.7643 4.52179C5.62549 4.47025 5.50055 4.42558 5.37909 4.37748C3.93539 3.79336 2.54722 3.5116 1.1174 3.53566C0.402493 3.54253 0.0068638 3.9308 0.00339337 4.63174C-7.70538e-05 5.11622 -7.70538e-05 5.6007 0.00339337 6.08518C0.00339337 6.62807 0.00339337 7.16752 -7.70537e-05 7.71041C-0.02437 11.5725 1.4818 14.6305 4.60865 17.0564C4.93834 17.3141 5.17086 17.7848 5.17086 18.2006C5.17086 19.6128 5.60813 20.9288 6.51392 22.2173C6.75338 22.5609 6.89566 23.0144 6.89913 23.4336C6.91996 27.0345 6.91649 30.3331 6.89913 33.5286C6.89913 33.9753 6.73602 34.4701 6.46533 34.848C4.74053 37.2601 4.74053 40.2598 6.46533 42.6787C6.73255 43.0567 6.89566 43.548 6.89913 43.9981C6.91996 48.2657 6.93384 51.8254 6.89913 55.5191C6.88872 56.3059 7.09348 56.7217 7.64181 57H18.6153C19.1636 56.7217 19.3684 56.3059 19.358 55.5191C19.3198 51.6776 19.3371 47.7743 19.3545 43.9981C19.358 43.5515 19.5072 43.0738 19.7536 42.7234C21.52 40.2391 21.52 37.2773 19.7536 34.7999C19.5072 34.4495 19.358 33.9959 19.3545 33.5836H19.351ZM8.97445 3.6353V2.05817H17.2757V6.09549C17.2792 8.5969 17.2827 11.1808 17.2653 13.7269C17.2584 14.366 17.3937 14.7645 17.7303 15.1081C17.9386 15.3177 18.0913 15.5548 18.2405 15.785C18.303 15.8812 18.3689 15.9843 18.4452 16.0908L19.2053 17.1698H12.431V14.8504C12.4379 11.9436 11.4558 9.42842 9.43602 7.17096C9.17226 6.87546 8.99874 6.44252 8.98833 6.04395C8.96751 5.24335 8.97098 4.45994 8.97445 3.6353ZM4.87587 14.6065C2.8665 12.4349 1.78372 9.21882 2.11688 6.42191L2.20364 5.70034L2.92549 5.82404C6.23281 6.38755 10.9387 9.64145 10.3314 16.3004L10.2759 16.9086L9.66159 16.9258C9.61648 16.9258 9.56789 16.9292 9.52278 16.9292C7.90903 16.9292 6.26405 16.108 4.87587 14.6065ZM18.4418 40.892C18.3897 40.971 18.3446 41.0466 18.303 41.1188C18.1919 41.3112 18.0739 41.5105 17.8865 41.6891C17.3521 42.1908 17.2514 42.8196 17.2584 43.6717C17.2861 46.0666 17.2827 48.4993 17.2792 50.853C17.2757 51.767 17.2757 52.6809 17.2757 53.5949V54.9247H8.97445V50.9183C8.97098 48.3962 8.97098 45.7883 8.98833 43.2216C8.9918 42.634 8.84951 42.2355 8.51982 41.8919C8.31507 41.6788 8.16931 41.4555 8.01314 41.2184C7.9472 41.1188 7.88126 41.0191 7.80839 40.9126L7.04836 39.8302H19.1359L18.4418 40.892ZM6.99978 37.7102L7.79797 36.621C7.89515 36.487 7.99232 36.3633 8.08602 36.2396C8.26648 36.0128 8.41918 35.817 8.51982 35.6211L8.5927 35.4837C8.75928 35.1607 8.95016 34.7931 8.95363 34.5319C8.9918 30.529 8.9918 26.4676 8.95363 22.4646C8.95016 22.176 8.73499 21.774 8.54412 21.4201L8.52676 21.3892C8.37407 21.104 8.16931 20.8257 7.95067 20.5336C7.85003 20.3962 7.74592 20.2553 7.64875 20.1144L7.31211 19.6368L8.12072 18.8603L8.48165 18.9359C10.3522 19.3276 12.2332 19.2966 14.2252 19.2657C15.4294 19.2451 16.6753 19.2279 17.9351 19.307L19.1983 19.386L18.4487 20.3996C18.3481 20.5336 18.2509 20.6573 18.1537 20.7776C17.9698 21.0078 17.8136 21.2071 17.7095 21.4029L17.6609 21.4991C17.4909 21.8187 17.3 22.1829 17.2965 22.4337C17.2584 26.4332 17.2584 30.5118 17.2965 34.5594C17.3 34.8137 17.4909 35.1813 17.6609 35.5043L17.706 35.5902C17.8102 35.7895 17.9698 35.9888 18.1537 36.219C18.2544 36.3427 18.3585 36.4733 18.4626 36.6141L19.2747 37.7102H6.99978Z" fill="#368ECE"/>
<path id="Vector_2" d="M46.9723 26.3405C46.9619 25.8251 46.948 25.3097 46.948 24.7908C46.948 24.595 46.8126 24.43 46.7294 24.351C46.5524 24.1758 46.3164 24.0658 46.0839 24.0693C45.3759 24.0761 44.6263 24.0968 43.9357 24.2376C43.2555 24.3785 42.5579 24.5847 41.8846 24.7874C41.5827 24.8767 41.2808 24.9661 40.9789 25.0485L40.2084 25.265L40.1043 24.4781C39.9759 23.5092 40.1737 22.6433 40.729 21.7603C42.2594 19.3207 42.2004 16.9017 40.5485 14.3625C40.257 13.9124 40.087 13.3833 40.0835 12.916C40.0661 9.98505 40.0661 7.00603 40.0661 4.12665V1.23009C40.0661 0.343601 39.7122 0 38.8064 0H28.8497C28.0029 0 27.6385 0.367653 27.6385 1.21978V3.98921C27.6385 6.99916 27.642 10.0091 27.6247 13.019C27.6247 13.4623 27.472 13.9365 27.2151 14.2938C25.473 16.7265 25.466 19.7433 27.2013 22.1691C27.465 22.5368 27.6212 23.0316 27.6247 23.4886C27.6455 26.8559 27.6455 30.2335 27.6247 33.5286C27.6212 33.9753 27.4581 34.4666 27.1874 34.8446C25.4903 37.2223 25.4903 40.2941 27.1908 42.6787C27.4615 43.0567 27.6247 43.548 27.6247 43.9981C27.6489 48.0973 27.6628 51.791 27.6212 55.5191C27.6142 56.3059 27.819 56.7217 28.3673 57H39.3408C39.8891 56.7217 40.0904 56.3059 40.0835 55.5191C40.0453 51.736 40.0592 47.9358 40.08 44.0565C40.0835 43.5961 40.2431 43.0876 40.5069 42.6959C41.3745 41.4039 41.8014 40.1154 41.8118 38.7548C41.8152 38.3253 42.072 37.8271 42.433 37.5453C44.6471 35.817 46.0353 33.7073 46.6773 31.0959C47.059 29.5497 47.0174 27.9932 46.9723 26.3405ZM28.5374 16.108C28.5894 16.029 28.6345 15.9534 28.6762 15.8812C28.7872 15.6888 28.9052 15.4895 29.0926 15.3109C29.6271 14.8092 29.7277 14.177 29.7173 13.3249C29.6896 10.9265 29.6965 8.48695 29.7 6.12985C29.7034 5.2193 29.7034 4.31219 29.7034 3.40509V2.07535H38.0012V6.06112C38.0082 8.57285 38.0082 11.1705 37.9908 13.7269C37.9874 14.366 38.1227 14.7645 38.4593 15.1081C38.6641 15.3177 38.8203 15.5548 38.9695 15.7816C39.0319 15.8812 39.0979 15.9843 39.1742 16.0874L39.9343 17.1698H27.8398L28.5374 16.108ZM29.7139 22.633C29.7139 22.1004 29.582 21.7328 29.2696 21.396C29.0683 21.1796 28.9157 20.9494 28.7525 20.7088C28.6831 20.6058 28.6103 20.4992 28.5339 20.3859L27.76 19.3035H39.9655L39.1742 20.3927C39.0909 20.5061 39.0146 20.6195 38.9417 20.726C38.7682 20.9803 38.6016 21.2208 38.3934 21.451C38.1019 21.7671 37.9839 22.1073 37.9943 22.5849C38.0186 23.7944 38.0186 25.0898 37.9908 26.5432C37.9839 26.9555 37.8138 27.3919 37.5501 27.6839C35.5129 29.9552 34.5308 32.4806 34.5482 35.415V37.7102H27.7635L28.5304 36.6279C28.6068 36.5179 28.6797 36.408 28.7491 36.3049C28.9122 36.0575 29.0822 35.8032 29.2974 35.573C29.5889 35.25 29.7139 34.8927 29.7139 34.3773C29.693 30.3365 29.693 26.3851 29.7139 22.633ZM39.4276 40.4693C39.3061 40.6515 39.1985 40.8198 39.0944 40.9779C38.8723 41.3249 38.6606 41.6479 38.4073 41.9503C38.1158 42.2904 37.9908 42.6409 37.9943 43.1151C38.0082 45.8708 38.0047 48.623 38.0047 51.3959V54.9075H29.7034V50.9286C29.7 48.4168 29.6965 45.8192 29.7139 43.2628C29.7208 42.634 29.582 42.232 29.2384 41.8815C29.0336 41.6685 28.8809 41.4349 28.7352 41.2047C28.6727 41.1084 28.6068 41.0088 28.5339 40.9023L27.8363 39.9024L29.0614 39.8268C30.2795 39.7512 31.4907 39.7684 32.6637 39.7856C34.7286 39.8131 36.679 39.8406 38.7092 39.4145L40.3854 39.064L39.4276 40.4693ZM37.4876 37.48L36.8178 37.59L36.6929 36.9303C36.2383 34.5491 36.9844 31.8106 38.6884 29.6116C40.1737 27.6977 42.1519 26.5123 44.1231 26.3645L44.7963 26.313L44.8657 26.9796C45.48 32.9239 41.5202 36.8272 37.4876 37.48Z" fill="#368ECE"/>
</g>
<defs>
<clipPath id="clip0_21_458">
<rect width="47" height="57" fill="white"/>
</clipPath>
</defs>
</svg>
