<svg width="47" height="58" viewBox="0 0 47 58" fill="none" xmlns="http://www.w3.org/2000/svg">
<g id="Camada_1" clip-path="url(#clip0_24_230)">
<path id="Vector" d="M19.351 34.0836C19.3337 30.7575 19.3337 27.3421 19.351 23.9302C19.3545 23.511 19.5003 23.054 19.7432 22.7138C21.5131 20.2227 21.52 17.2609 19.7605 14.7869C19.5072 14.4296 19.3545 13.9554 19.351 13.5156C19.3406 10.6534 19.3406 7.79465 19.3406 4.93246V1.66137C19.3371 0.881397 18.9589 0.503436 18.1815 0.5H8.05132C7.30864 0.503436 6.91649 0.888269 6.91301 1.62014C6.90954 2.26611 6.90954 2.91208 6.90954 3.57179V5.44442L5.7643 5.02179C5.62549 4.97025 5.50055 4.92558 5.37909 4.87748C3.93539 4.29336 2.54722 4.0116 1.1174 4.03566C0.402493 4.04253 0.0068638 4.4308 0.00339337 5.13174C-7.70538e-05 5.61622 -7.70538e-05 6.1007 0.00339337 6.58518C0.00339337 7.12807 0.00339337 7.66752 -7.70537e-05 8.21041C-0.02437 12.0725 1.4818 15.1305 4.60865 17.5564C4.93834 17.8141 5.17086 18.2848 5.17086 18.7006C5.17086 20.1128 5.60813 21.4288 6.51392 22.7173C6.75338 23.0609 6.89566 23.5144 6.89913 23.9336C6.91996 27.5345 6.91649 30.8331 6.89913 34.0286C6.89913 34.4753 6.73602 34.9701 6.46533 35.348C4.74053 37.7601 4.74053 40.7598 6.46533 43.1787C6.73255 43.5567 6.89566 44.048 6.89913 44.4981C6.91996 48.7657 6.93384 52.3254 6.89913 56.0191C6.88872 56.8059 7.09348 57.2217 7.64181 57.5H18.6153C19.1636 57.2217 19.3684 56.8059 19.358 56.0191C19.3198 52.1776 19.3371 48.2743 19.3545 44.4981C19.358 44.0515 19.5072 43.5738 19.7536 43.2234C21.52 40.7391 21.52 37.7773 19.7536 35.2999C19.5072 34.9495 19.358 34.4959 19.3545 34.0836H19.351ZM8.97445 4.1353V2.55817H17.2757V6.59549C17.2792 9.0969 17.2827 11.6808 17.2653 14.2269C17.2584 14.866 17.3937 15.2645 17.7303 15.6081C17.9386 15.8177 18.0913 16.0548 18.2405 16.285C18.303 16.3812 18.3689 16.4843 18.4452 16.5908L19.2053 17.6698H12.431V15.3504C12.4379 12.4436 11.4558 9.92842 9.43602 7.67096C9.17226 7.37546 8.99874 6.94252 8.98833 6.54395C8.96751 5.74335 8.97098 4.95994 8.97445 4.1353ZM4.87587 15.1065C2.8665 12.9349 1.78372 9.71882 2.11688 6.92191L2.20364 6.20034L2.92549 6.32404C6.23281 6.88755 10.9387 10.1414 10.3314 16.8004L10.2759 17.4086L9.66159 17.4258C9.61648 17.4258 9.56789 17.4292 9.52278 17.4292C7.90903 17.4292 6.26405 16.608 4.87587 15.1065ZM18.4418 41.392C18.3897 41.471 18.3446 41.5466 18.303 41.6188C18.1919 41.8112 18.0739 42.0105 17.8865 42.1891C17.3521 42.6908 17.2514 43.3196 17.2584 44.1717C17.2861 46.5666 17.2827 48.9993 17.2792 51.353C17.2757 52.267 17.2757 53.1809 17.2757 54.0949V55.4247H8.97445V51.4183C8.97098 48.8962 8.97098 46.2883 8.98833 43.7216C8.9918 43.134 8.84951 42.7355 8.51982 42.3919C8.31507 42.1788 8.16931 41.9555 8.01314 41.7184C7.9472 41.6188 7.88126 41.5191 7.80839 41.4126L7.04836 40.3302H19.1359L18.4418 41.392ZM6.99978 38.2102L7.79797 37.121C7.89515 36.987 7.99232 36.8633 8.08602 36.7396C8.26648 36.5128 8.41918 36.317 8.51982 36.1211L8.5927 35.9837C8.75928 35.6607 8.95016 35.2931 8.95363 35.0319C8.9918 31.029 8.9918 26.9676 8.95363 22.9646C8.95016 22.676 8.73499 22.274 8.54412 21.9201L8.52676 21.8892C8.37407 21.604 8.16931 21.3257 7.95067 21.0336C7.85003 20.8962 7.74592 20.7553 7.64875 20.6144L7.31211 20.1368L8.12072 19.3603L8.48165 19.4359C10.3522 19.8276 12.2332 19.7966 14.2252 19.7657C15.4294 19.7451 16.6753 19.7279 17.9351 19.807L19.1983 19.886L18.4487 20.8996C18.3481 21.0336 18.2509 21.1573 18.1537 21.2776C17.9698 21.5078 17.8136 21.7071 17.7095 21.9029L17.6609 21.9991C17.4909 22.3187 17.3 22.6829 17.2965 22.9337C17.2584 26.9332 17.2584 31.0118 17.2965 35.0594C17.3 35.3137 17.4909 35.6813 17.6609 36.0043L17.706 36.0902C17.8102 36.2895 17.9698 36.4888 18.1537 36.719C18.2544 36.8427 18.3585 36.9733 18.4626 37.1141L19.2747 38.2102H6.99978Z" fill="#FFCC5B"/>
<path id="Vector_2" d="M46.9723 26.8405C46.9619 26.3251 46.948 25.8097 46.948 25.2908C46.948 25.095 46.8126 24.93 46.7294 24.851C46.5524 24.6758 46.3164 24.5658 46.0839 24.5693C45.3759 24.5761 44.6263 24.5968 43.9357 24.7376C43.2555 24.8785 42.5579 25.0847 41.8846 25.2874C41.5827 25.3767 41.2808 25.4661 40.9789 25.5485L40.2084 25.765L40.1043 24.9781C39.9759 24.0092 40.1737 23.1433 40.729 22.2603C42.2594 19.8207 42.2004 17.4017 40.5485 14.8625C40.257 14.4124 40.087 13.8833 40.0835 13.416C40.0661 10.4851 40.0661 7.50603 40.0661 4.62665V1.73009C40.0661 0.843601 39.7122 0.5 38.8064 0.5H28.8497C28.0029 0.5 27.6385 0.867653 27.6385 1.71978V4.48921C27.6385 7.49916 27.642 10.5091 27.6247 13.519C27.6247 13.9623 27.472 14.4365 27.2151 14.7938C25.473 17.2265 25.466 20.2433 27.2013 22.6691C27.465 23.0368 27.6212 23.5316 27.6247 23.9886C27.6455 27.3559 27.6455 30.7335 27.6247 34.0286C27.6212 34.4753 27.4581 34.9666 27.1874 35.3446C25.4903 37.7223 25.4903 40.7941 27.1908 43.1787C27.4615 43.5567 27.6247 44.048 27.6247 44.4981C27.6489 48.5973 27.6628 52.291 27.6212 56.0191C27.6142 56.8059 27.819 57.2217 28.3673 57.5H39.3408C39.8891 57.2217 40.0904 56.8059 40.0835 56.0191C40.0453 52.236 40.0592 48.4358 40.08 44.5565C40.0835 44.0961 40.2431 43.5876 40.5069 43.1959C41.3745 41.9039 41.8014 40.6154 41.8118 39.2548C41.8152 38.8253 42.072 38.3271 42.433 38.0453C44.6471 36.317 46.0353 34.2073 46.6773 31.5959C47.059 30.0497 47.0174 28.4932 46.9723 26.8405ZM28.5374 16.608C28.5894 16.529 28.6345 16.4534 28.6762 16.3812C28.7872 16.1888 28.9052 15.9895 29.0926 15.8109C29.6271 15.3092 29.7277 14.677 29.7173 13.8249C29.6896 11.4265 29.6965 8.98695 29.7 6.62985C29.7034 5.7193 29.7034 4.81219 29.7034 3.90509V2.57535H38.0012V6.56112C38.0082 9.07285 38.0082 11.6705 37.9908 14.2269C37.9874 14.866 38.1227 15.2645 38.4593 15.6081C38.6641 15.8177 38.8203 16.0548 38.9695 16.2816C39.0319 16.3812 39.0979 16.4843 39.1742 16.5874L39.9343 17.6698H27.8398L28.5374 16.608ZM29.7139 23.133C29.7139 22.6004 29.582 22.2328 29.2696 21.896C29.0683 21.6796 28.9157 21.4494 28.7525 21.2088C28.6831 21.1058 28.6103 20.9992 28.5339 20.8859L27.76 19.8035H39.9655L39.1742 20.8927C39.0909 21.0061 39.0146 21.1195 38.9417 21.226C38.7682 21.4803 38.6016 21.7208 38.3934 21.951C38.1019 22.2671 37.9839 22.6073 37.9943 23.0849C38.0186 24.2944 38.0186 25.5898 37.9908 27.0432C37.9839 27.4555 37.8138 27.8919 37.5501 28.1839C35.5129 30.4552 34.5308 32.9806 34.5482 35.915V38.2102H27.7635L28.5304 37.1279C28.6068 37.0179 28.6797 36.908 28.7491 36.8049C28.9122 36.5575 29.0822 36.3032 29.2974 36.073C29.5889 35.75 29.7139 35.3927 29.7139 34.8773C29.693 30.8365 29.693 26.8851 29.7139 23.133ZM39.4276 40.9693C39.3061 41.1515 39.1985 41.3198 39.0944 41.4779C38.8723 41.8249 38.6606 42.1479 38.4073 42.4503C38.1158 42.7904 37.9908 43.1409 37.9943 43.6151C38.0082 46.3708 38.0047 49.123 38.0047 51.8959V55.4075H29.7034V51.4286C29.7 48.9168 29.6965 46.3192 29.7139 43.7628C29.7208 43.134 29.582 42.732 29.2384 42.3815C29.0336 42.1685 28.8809 41.9349 28.7352 41.7047C28.6727 41.6084 28.6068 41.5088 28.5339 41.4023L27.8363 40.4024L29.0614 40.3268C30.2795 40.2512 31.4907 40.2684 32.6637 40.2856C34.7286 40.3131 36.679 40.3406 38.7092 39.9145L40.3854 39.564L39.4276 40.9693ZM37.4876 37.98L36.8178 38.09L36.6929 37.4303C36.2383 35.0491 36.9844 32.3106 38.6884 30.1116C40.1737 28.1977 42.1519 27.0123 44.1231 26.8645L44.7963 26.813L44.8657 27.4796C45.48 33.4239 41.5202 37.3272 37.4876 37.98Z" fill="#FFCC5B"/>
</g>
<defs>
<clipPath id="clip0_24_230">
<rect width="47" height="57" fill="white" transform="translate(0 0.5)"/>
</clipPath>
</defs>
</svg>
