<svg width="40" height="41" viewBox="0 0 40 41" fill="none" xmlns="http://www.w3.org/2000/svg">
<g id="Modo_de_isolamento" clip-path="url(#clip0_29_801)">
<path id="Vector" d="M21.2199 18.8537C19.5668 18.9573 18.2793 19.0291 16.6818 19.1327V24.8334C18.0091 24.9131 19.3999 25.0008 20.7351 25.0805C21.5616 27.9906 21.6808 35.8359 20.9576 40.3885C16.0301 40.3885 11.0232 40.6277 6.04803 40.3008C2.67032 40.0775 0.174789 37.0399 0.111208 33.3484C-0.0239 24.7138 -0.0636377 16.0711 0.142998 7.43651C0.246317 3.21087 3.16307 0.619683 7.415 0.571846C15.8871 0.476171 24.3671 0.468198 32.8472 0.571846C37.0991 0.627656 39.7933 3.33844 39.8569 7.60394C39.992 15.9675 40.0476 24.339 39.9284 32.7026C39.8569 37.877 37.0911 40.3725 31.8776 40.4762C30.6934 40.5001 29.5092 40.4762 28.3886 40.4762C27.4826 37.7335 27.2998 30.2868 28.0071 25.2001C29.4774 25.0008 31.0033 24.7935 32.9107 24.5304C33.0697 22.8561 33.2286 21.1977 33.4114 19.2603C31.4802 19.0849 29.8271 18.9414 27.9038 18.766V12.874C29.7476 12.4515 31.5994 12.0209 33.634 11.5505V7.18137C29.9622 5.97747 26.4891 6.0253 23.5803 8.68028C20.7192 11.2954 21.6093 15.0745 21.2199 18.8298V18.8537Z" fill="#462C2E"/>
</g>
<defs>
<clipPath id="clip0_29_801">
<rect width="40" height="40" fill="white" transform="translate(0 0.5)"/>
</clipPath>
</defs>
</svg>
