<svg width="40" height="41" viewBox="0 0 40 41" fill="none" xmlns="http://www.w3.org/2000/svg">
<g id="Modo_de_isolamento" clip-path="url(#clip0_29_813)">
<path id="Vector" d="M0.0801577 20.6393C0.0801577 17.5893 -0.0640153 14.5314 0.112196 11.4974C0.488648 4.91963 4.41336 0.937942 11.0453 0.675151C16.9003 0.444213 22.7794 0.452177 28.6344 0.659224C35.0742 0.890162 39.0709 4.19496 39.5916 10.5258C40.1362 17.0877 40.1362 23.7689 39.5916 30.3307C39.079 36.5262 35.3305 39.839 29.0349 40.2133C23.0597 40.5716 17.0285 40.6114 11.0533 40.2292C3.88472 39.7753 0.360494 35.7936 0.0561289 28.5947C-0.0560057 25.9509 0.0401097 23.2911 0.0401097 20.6473C0.0561289 20.6473 0.0641385 20.6473 0.0801577 20.6473V20.6393ZM36.1955 20.8145C36.1955 20.8145 36.2115 20.8145 36.2195 20.8145C36.2195 17.8999 36.3317 14.9853 36.1955 12.0787C35.9712 7.32456 33.8647 4.79221 29.2031 4.53738C23.1078 4.20292 16.9724 4.17107 10.8771 4.48164C6.35168 4.71258 4.18909 6.69546 3.90875 11.1709C3.51628 17.3584 3.54832 23.6017 3.96482 29.7892C4.27719 34.408 6.63202 36.351 11.3176 36.5023C17.1727 36.6935 23.0437 36.6935 28.8907 36.4785C33.4722 36.3033 35.8991 33.7311 36.1715 29.1601C36.3317 26.3889 36.2035 23.6017 36.2035 20.8225L36.1955 20.8145Z" fill="#462C2E"/>
<path id="Vector_2" d="M9.68359 20.4088C9.68359 14.8026 14.193 10.2316 19.7757 10.1918C25.5987 10.144 30.3244 14.7627 30.3003 20.4804C30.2763 26.0946 25.3344 30.8965 19.7036 30.7691C14.1449 30.6497 9.6916 26.0468 9.68359 20.4167V20.4088ZM13.2799 20.4804C14.4253 25.2266 16.9323 27.3847 20.7929 26.9387C24.1249 26.5565 26.5759 23.7852 26.5759 20.4167C26.5759 17.104 24.0528 14.3327 20.7208 13.9823C16.7481 13.5682 14.4333 15.583 13.2799 20.4804Z" fill="#462C2E"/>
<path id="Vector_3" d="M28.1618 9.42699C28.4902 8.89345 28.6344 8.50324 28.9147 8.24841C29.2912 7.89803 29.7637 7.65116 30.1322 7.4043C31.8542 7.57949 33.1838 8.2086 32.8955 10.0481C32.7833 10.7489 31.9103 11.6806 31.2055 11.8717C29.4594 12.3575 28.5623 11.2825 28.1618 9.42699Z" fill="#462C2E"/>
</g>
<defs>
<clipPath id="clip0_29_813">
<rect width="40" height="40" fill="white" transform="translate(0 0.5)"/>
</clipPath>
</defs>
</svg>
