<svg width="41" height="65" viewBox="0 0 41 65" fill="none" xmlns="http://www.w3.org/2000/svg">
<g id="Camada_1" clip-path="url(#clip0_21_428)">
<path id="Vector" d="M6.00797 64.5C5.50084 64.2514 4.95299 64.063 4.49398 63.7428C3.33165 62.9404 2.78009 61.7651 2.70976 60.3561C2.49136 55.926 2.29517 51.4996 2.07307 47.0694C1.84726 42.5376 1.60295 38.0057 1.37715 33.4738C1.19206 29.7104 1.02919 25.9471 0.844105 22.1837C0.662721 18.4843 0.46283 14.7812 0.277745 11.0819C0.177799 9.06272 0.0519413 7.0473 0.000117526 5.02811C-0.066513 2.30823 1.69549 0.5 4.36072 0.5C15.1253 0.5 25.8898 0.5 36.6543 0.5C39.2973 0.5 41.0927 2.29693 40.9964 4.96783C40.8595 8.79525 40.6299 12.6189 40.4412 16.4463C40.3005 19.2754 40.1672 22.1008 40.0266 24.9299C39.8341 28.7988 39.6416 32.6639 39.4491 36.5327C39.3121 39.2978 39.1789 42.0629 39.0456 44.828C38.8531 48.7383 38.6569 52.6448 38.4682 56.5551C38.4089 57.7832 38.3497 59.0075 38.3053 60.2356C38.2275 62.2661 37.1911 63.6938 35.3069 64.3418C35.1996 64.3795 35.0996 64.4435 34.996 64.4962H6.00797V64.5ZM3.52783 20.6052C4.07198 31.6091 4.60503 42.4735 5.14178 53.3267H35.8659C36.0695 49.2092 36.273 45.1369 36.4729 41.0608C36.6173 38.13 36.7543 35.1954 36.8949 32.2646C37.0504 29.0625 37.1985 25.8604 37.3614 22.6583C37.3762 22.3381 37.2984 22.1874 36.9653 22.0895C36.1435 21.8484 35.3328 21.5621 34.5295 21.2607C29.995 19.5467 25.4715 19.5542 20.9443 21.3097C15.8249 23.295 10.6943 23.3025 5.56007 21.3511C4.91227 21.1063 4.26077 20.8765 3.52413 20.609L3.52783 20.6052ZM37.5353 19.3508C37.6168 17.6932 37.6945 16.1751 37.7648 14.6607C37.924 11.3757 38.0869 8.09079 38.2312 4.80585C38.2683 3.94694 37.8278 3.45344 36.9838 3.32536C36.7432 3.28769 36.4952 3.28769 36.2508 3.28769C31.1758 3.28769 26.1008 3.28769 21.0258 3.28769C15.5398 3.28769 10.0576 3.28769 4.57171 3.28769C3.19468 3.28769 2.71716 3.79625 2.78009 5.17126C2.87634 7.25072 2.95777 9.33018 3.06142 11.4096C3.15396 13.3234 3.26872 15.2333 3.35756 17.147C3.37607 17.5313 3.49452 17.7196 3.8906 17.8289C4.71608 18.0549 5.53045 18.3299 6.33002 18.6388C10.872 20.4018 15.4177 20.4282 19.9634 18.6727C25.2346 16.6384 30.491 16.6422 35.7437 18.7292C36.3064 18.9552 36.8912 19.1285 37.5316 19.3508H37.5353ZM5.27133 56.1934C5.33797 57.4479 5.38979 58.6647 5.47493 59.8853C5.57858 61.362 5.97096 61.7123 7.42942 61.7123C16.1432 61.7123 24.857 61.7123 33.5708 61.7123C33.8558 61.7123 34.1409 61.6822 34.4222 61.6407C34.996 61.5579 35.3994 61.1811 35.4513 60.6387C35.5956 59.177 35.6512 57.7041 35.74 56.1972H5.27133V56.1934Z" fill="#368ECE"/>
</g>
<defs>
<clipPath id="clip0_21_428">
<rect width="41" height="64" fill="white" transform="translate(0 0.5)"/>
</clipPath>
</defs>
</svg>
