<svg width="41" height="64" viewBox="0 0 41 64" fill="none" xmlns="http://www.w3.org/2000/svg">
<g id="Camada_1" clip-path="url(#clip0_24_221)">
<path id="Vector" d="M6.00797 64C5.50084 63.7514 4.95299 63.563 4.49398 63.2428C3.33165 62.4404 2.78009 61.2651 2.70976 59.8561C2.49136 55.426 2.29517 50.9996 2.07307 46.5694C1.84726 42.0376 1.60295 37.5057 1.37715 32.9738C1.19206 29.2104 1.02919 25.4471 0.844105 21.6837C0.662721 17.9843 0.46283 14.2812 0.277745 10.5819C0.177799 8.56272 0.0519413 6.5473 0.000117526 4.52811C-0.066513 1.80823 1.69549 0 4.36072 0C15.1253 0 25.8898 0 36.6543 0C39.2973 0 41.0927 1.79693 40.9964 4.46783C40.8595 8.29525 40.6299 12.1189 40.4412 15.9463C40.3005 18.7754 40.1672 21.6008 40.0266 24.4299C39.8341 28.2988 39.6416 32.1639 39.4491 36.0327C39.3121 38.7978 39.1789 41.5629 39.0456 44.328C38.8531 48.2383 38.6569 52.1448 38.4682 56.0551C38.4089 57.2832 38.3497 58.5075 38.3053 59.7356C38.2275 61.7661 37.1911 63.1938 35.3069 63.8418C35.1996 63.8795 35.0996 63.9435 34.996 63.9962H6.00797V64ZM3.52783 20.1052C4.07198 31.1091 4.60503 41.9735 5.14178 52.8267H35.8659C36.0695 48.7092 36.273 44.6369 36.4729 40.5608C36.6173 37.63 36.7543 34.6954 36.8949 31.7646C37.0504 28.5625 37.1985 25.3604 37.3614 22.1583C37.3762 21.8381 37.2984 21.6874 36.9653 21.5895C36.1435 21.3484 35.3328 21.0621 34.5295 20.7607C29.995 19.0467 25.4715 19.0542 20.9443 20.8097C15.8249 22.795 10.6943 22.8025 5.56007 20.8511C4.91227 20.6063 4.26077 20.3765 3.52413 20.109L3.52783 20.1052ZM37.5353 18.8508C37.6168 17.1932 37.6945 15.6751 37.7648 14.1607C37.924 10.8757 38.0869 7.59079 38.2312 4.30585C38.2683 3.44694 37.8278 2.95344 36.9838 2.82536C36.7432 2.78769 36.4952 2.78769 36.2508 2.78769C31.1758 2.78769 26.1008 2.78769 21.0258 2.78769C15.5398 2.78769 10.0576 2.78769 4.57171 2.78769C3.19468 2.78769 2.71716 3.29625 2.78009 4.67126C2.87634 6.75072 2.95777 8.83018 3.06142 10.9096C3.15396 12.8234 3.26872 14.7333 3.35756 16.647C3.37607 17.0313 3.49452 17.2196 3.8906 17.3289C4.71608 17.5549 5.53045 17.8299 6.33002 18.1388C10.872 19.9018 15.4177 19.9282 19.9634 18.1727C25.2346 16.1384 30.491 16.1422 35.7437 18.2292C36.3064 18.4552 36.8912 18.6285 37.5316 18.8508H37.5353ZM5.27133 55.6934C5.33797 56.9479 5.38979 58.1647 5.47493 59.3853C5.57858 60.862 5.97096 61.2123 7.42942 61.2123C16.1432 61.2123 24.857 61.2123 33.5708 61.2123C33.8558 61.2123 34.1409 61.1822 34.4222 61.1407C34.996 61.0579 35.3994 60.6811 35.4513 60.1387C35.5956 58.677 35.6512 57.2041 35.74 55.6972H5.27133V55.6934Z" fill="#FFCC5B"/>
</g>
<defs>
<clipPath id="clip0_24_221">
<rect width="41" height="64" fill="white"/>
</clipPath>
</defs>
</svg>
