<svg width="40" height="41" viewBox="0 0 40 41" fill="none" xmlns="http://www.w3.org/2000/svg">
<g id="Modo_de_isolamento" clip-path="url(#clip0_29_804)">
<path id="Vector" d="M0 40.4996C0.980905 36.7614 1.77688 33.7195 2.65327 30.3815C0 24.9783 -0.948744 19.2228 1.41508 13.2353C3.09548 8.99271 5.86131 5.68673 9.76884 3.34132C17.7528 -1.42954 27.9879 -0.0847371 34.4442 6.55124C40.7317 13.0031 41.801 23.1052 37.0251 30.8698C31.6945 39.539 22.4884 42.0686 10.1548 38.0341C7.26834 38.7386 4.04422 39.523 0 40.5076L0 40.4996ZM10.8864 34.3199C20.7276 38.5544 28.9688 36.7614 33.801 29.453C38.1829 22.825 37.2583 14.1558 31.5819 8.62449C25.8412 3.02913 17.3025 2.3167 10.6452 6.88745C3.30452 11.9385 1.78492 19.9593 6.28744 29.9653C5.88543 31.7263 5.48342 33.4874 4.99296 35.6567C7.14774 35.1684 8.91658 34.7682 10.8864 34.3199Z" fill="#462C2E"/>
<path id="Vector_2" d="M14.7377 11.3789C15.4533 13.0199 16.0885 14.4688 16.7558 15.9897C16.2814 16.9583 15.8231 17.9028 15.2764 19.0315C16.5146 22.1133 19.0231 23.9304 22.2955 25.2592C23.2201 24.5228 24.2251 23.7223 25.407 22.7777C26.8462 23.4341 28.2694 24.0825 29.5638 24.6829C30.3679 26.508 29.8694 27.8288 28.599 28.7894C27.1518 29.878 25.4794 30.1662 23.6623 29.7019C18.1548 28.2931 14.2312 24.843 11.3287 20.1602C10.6452 19.0555 10.1467 17.7347 9.96182 16.462C9.51961 13.4281 11.2081 11.603 14.7457 11.3869L14.7377 11.3789Z" fill="#462C2E"/>
</g>
<defs>
<clipPath id="clip0_29_804">
<rect width="40" height="40" fill="white" transform="translate(0 0.5)"/>
</clipPath>
</defs>
</svg>
